<?xml version="1.0" standalone="no"?>
<!DOCTYPE svg PUBLIC "-//W3C//DTD SVG 20010904//EN"
 "http://www.w3.org/TR/2001/REC-SVG-20010904/DTD/svg10.dtd">
<svg version="1.0" xmlns="http://www.w3.org/2000/svg"
 width="655.000000pt" height="655.000000pt" viewBox="0 0 655.000000 655.000000"
 preserveAspectRatio="xMidYMid meet">
<metadata>
Created by potrace 1.11, written by Peter Selinger 2001-2013
</metadata>
<g transform="translate(0.000000,655.000000) scale(0.100000,-0.100000)"
fill="#000000" stroke="none">
<path d="M5980 5710 c-13 -8 -12 -10 3 -10 9 0 17 5 17 10 0 12 -1 12 -20 0z"/>
<path d="M6013 5659 c-9 -9 -13 -44 -13 -101 l0 -88 -27 0 c-16 0 -49 6 -74
14 -42 13 -50 12 -115 -11 -126 -46 -134 -47 -146 -35 -8 8 -8 23 1 56 18 73
16 79 -41 108 -97 47 -108 46 -156 -11 -73 -86 -154 -90 -226 -10 -20 21 -36
43 -36 49 0 23 -38 29 -91 14 -95 -28 -99 -33 -99 -123 0 -64 -4 -83 -21 -105
-37 -47 -73 -59 -160 -52 l-77 7 -36 -71 c-40 -81 -39 -90 19 -134 40 -31 65
-73 65 -112 0 -41 -43 -106 -89 -134 -37 -23 -40 -29 -41 -68 0 -27 -13 -73
-34 -121 -64 -146 -89 -238 -90 -336 -1 -49 2 -101 6 -115 6 -22 3 -28 -25
-43 -33 -18 -56 -49 -143 -192 -68 -111 -99 -145 -135 -145 -25 0 -34 -8 -57
-47 -35 -61 -64 -91 -97 -99 -21 -5 -39 2 -93 40 l-67 47 -40 -45 c-22 -25
-56 -70 -74 -102 -31 -50 -33 -58 -19 -68 9 -6 36 -26 62 -43 77 -54 66 -63
-79 -63 l-124 0 -43 44 c-57 57 -115 71 -438 102 -30 3 -72 12 -93 20 -50 19
-69 18 -111 -7 -25 -14 -72 -25 -153 -35 -127 -16 -331 -63 -391 -92 l-37 -17
-3 -156 -2 -156 -69 -66 c-101 -98 -135 -106 -240 -57 -142 68 -186 51 -190
-70 -1 -46 -8 -81 -18 -97 -11 -17 -18 -61 -23 -141 -11 -173 -41 -244 -112
-263 -43 -11 -128 -56 -128 -67 0 -3 5 -20 12 -38 15 -44 3 -57 -92 -103 -65
-31 -78 -42 -101 -84 -40 -74 -49 -81 -106 -72 -26 4 -50 7 -53 7 -3 1 -13
-15 -22 -34 -14 -29 -25 -37 -65 -48 -26 -6 -56 -14 -65 -17 -14 -3 -17 -17
-16 -78 0 -82 -4 -95 -32 -95 -13 0 -30 -19 -52 -60 -29 -52 -37 -60 -70 -65
-37 -7 -38 -8 -38 -49 0 -54 -13 -66 -70 -66 -65 1 -117 28 -178 94 -46 51
-54 57 -70 45 -30 -23 -147 -132 -150 -140 -2 -3 15 -28 38 -54 56 -65 80
-116 80 -170 0 -91 -44 -137 -150 -159 -121 -25 -237 -74 -277 -118 -23 -24
-37 -92 -48 -227 l-5 -74 78 5 c76 4 80 6 115 44 20 21 41 53 47 70 12 34 37
44 110 44 64 0 217 -64 244 -102 20 -29 20 -96 0 -169 -9 -32 -14 -65 -11 -73
7 -17 124 -56 168 -56 26 0 32 6 49 45 11 26 47 73 85 110 62 61 69 65 112 65
58 0 95 -18 163 -80 30 -27 62 -50 71 -50 8 0 46 29 82 65 l67 65 -52 75 c-43
62 -52 83 -56 129 -2 30 -2 66 1 78 15 59 135 138 209 138 20 0 40 4 43 10 3
5 -2 50 -12 101 -17 89 -17 91 2 106 11 7 34 13 50 11 29 -3 30 -4 30 -57 0
-53 0 -54 46 -79 l46 -26 48 42 c73 64 121 52 159 -40 9 -20 19 -39 23 -41 5
-3 36 -8 71 -11 l62 -7 0 54 c0 99 60 125 153 65 49 -31 49 -31 82 -14 31 17
55 52 55 80 0 8 13 19 29 26 26 10 37 8 103 -23 40 -19 105 -43 143 -52 96
-25 119 -38 154 -89 17 -24 50 -61 75 -83 45 -39 163 -103 191 -103 30 0 91
71 144 167 53 97 56 99 174 187 65 49 124 100 130 113 8 18 5 57 -12 161 -13
75 -24 143 -27 150 -5 18 124 146 169 167 21 10 67 44 102 76 40 36 78 62 102
67 21 6 115 28 208 51 258 62 240 54 260 107 9 25 32 68 51 96 38 56 41 70 19
88 -22 18 -18 28 15 35 16 3 39 14 52 24 28 22 73 36 162 51 67 11 172 55 193
82 6 7 16 30 22 51 7 20 15 37 17 37 3 0 16 -7 30 -17 25 -16 26 -15 54 15 34
37 36 38 74 12 29 -18 30 -18 43 0 7 10 37 26 66 34 69 20 123 65 131 111 4
19 3 41 -1 48 -4 6 -8 67 -8 134 0 109 2 123 17 123 9 0 20 -4 23 -10 11 -18
37 -11 57 15 24 31 88 65 123 65 15 0 40 -14 62 -34 34 -31 37 -38 41 -102 2
-38 8 -73 13 -79 5 -5 54 -10 109 -11 l99 -1 6 46 c11 84 24 119 56 142 48 34
100 22 160 -37 48 -47 50 -48 75 -33 29 18 144 129 144 139 0 3 -13 19 -30 35
-29 28 -30 32 -30 116 l0 87 31 11 c48 17 59 14 70 -19 12 -32 34 -31 24 1 -5
16 -1 19 22 19 44 0 51 10 48 66 -4 78 3 104 31 104 12 0 25 4 28 9 3 5 -12
46 -33 91 -34 72 -38 87 -28 113 11 32 1 45 -77 102 -19 14 -28 31 -31 55 -7
79 -25 119 -63 144 -21 13 -42 30 -49 37 -7 8 -14 76 -17 169 -3 85 -9 190
-12 232 -6 68 -4 82 15 113 17 30 20 46 15 83 -4 36 3 83 31 196 28 115 35
157 29 190 -4 22 -7 64 -5 91 1 41 -3 58 -28 95 -64 97 -146 151 -178 119z"/>
<path d="M1036 2095 c-3 -8 -1 -25 4 -37 l9 -23 0 22 c1 12 4 28 7 37 3 9 2
16 -4 16 -5 0 -12 -7 -16 -15z"/>
</g>
</svg>
